<?xml version="1.0" standalone="no"?>
<svg xmlns="http://www.w3.org/2000/svg" viewBox="0 0 64.679 58.401" width="64.679" height="58.401"><rect fill="#000000" width="64.679" height="58.401" x="0" y="0"></rect><path fill="white" fill-rule="nonzero" d="M0.00 6.48L17.16 15.68L17.16 17.88L0.00 27.12L0.00 24.04L13.40 16.76L0.00 9.56L0.00 6.48ZM21.08 29.80L21.08 29.80L21.08 22.44L22.92 22.44L24.96 28.56Q26.88 29.16 29.52 29.16L29.52 29.16L29.52 18.44Q27.80 17.76 26.52 17.08Q25.24 16.40 23.94 15.38Q22.64 14.36 21.94 12.92Q21.24 11.48 21.24 9.72L21.24 9.72Q21.24 6.60 23.52 4.70Q25.80 2.80 29.52 2.52L29.52 2.52L29.52 0L32.12 0L32.12 2.52Q35.76 2.68 38.88 3.72L38.88 3.72L38.88 11.08L37.04 11.08L35.12 5.24Q33.60 4.96 32.12 4.92L32.12 4.92L32.12 14.48Q36.44 16.12 38.52 18.22Q40.60 20.32 40.68 23.28L40.68 23.28Q40.68 26.96 38.30 29.06Q35.92 31.16 32.12 31.56L32.12 31.56L32.12 34.40L29.52 34.40L29.52 31.68Q24.96 31.64 21.08 29.80ZM25.56 9.16L25.56 9.16Q25.56 10.56 26.58 11.58Q27.60 12.60 29.52 13.44L29.52 13.44L29.52 5.04Q27.68 5.28 26.62 6.46Q25.56 7.64 25.56 9.16ZM32.12 19.56L32.12 28.96Q36.16 28.04 36.16 24.32L36.16 24.32Q36.16 22.72 35.14 21.64Q34.12 20.56 32.12 19.56L32.12 19.56Z" transform="translate(12 12) scale(1)"></path></svg>